<?xml version="1.0" encoding="UTF-8" standalone="no"?>
<svg width="69px" height="34px" viewBox="0 0 69 34" version="1.1" xmlns="http://www.w3.org/2000/svg" xmlns:xlink="http://www.w3.org/1999/xlink" xmlns:sketch="http://www.bohemiancoding.com/sketch/ns">
    <!-- Generator: Sketch 3.3.1 (12002) - http://www.bohemiancoding.com/sketch -->
    <title>HUMANLY  + POSSIBLE + productions</title>
    <desc>Created with Sketch.</desc>
    <defs></defs>
    <g id="Page-1" stroke="none" stroke-width="1" fill="none" fill-rule="evenodd" sketch:type="MSPage">
        <g id="HUMANLY--+-POSSIBLE-+-productions" sketch:type="MSLayerGroup" fill="#E2E2E2">
            <path d="M0.794921875,0.380859375 L2.45898438,0.380859375 L2.45898438,3.6328125 L5.34179687,3.6328125 L5.34179687,0.380859375 L7,0.380859375 L7,9 L5.34179687,9 L5.34179687,5.22070312 L2.45898438,5.22070312 L2.45898438,9 L0.794921875,9 L0.794921875,0.380859375 Z M10.9042969,0.380859375 L12.5507812,0.380859375 L12.5507812,5.95898438 C12.5507812,6.43945553 12.592773,6.77929588 12.6767578,6.97851562 C12.7607426,7.17773537 12.8994131,7.33691347 13.0927734,7.45605469 C13.2861338,7.57519591 13.5195299,7.63476562 13.7929688,7.63476562 C14.0820327,7.63476562 14.3310536,7.56836004 14.5400391,7.43554688 C14.7490245,7.30273371 14.8935543,7.13379009 14.9736328,6.92871094 C15.0537113,6.72363179 15.09375,6.33203414 15.09375,5.75390625 L15.09375,0.380859375 L16.7402344,0.380859375 L16.7402344,5.51953125 C16.7402344,6.38672309 16.6914067,6.98827957 16.59375,7.32421875 C16.4960933,7.66015793 16.3095717,7.98437344 16.0341797,8.296875 C15.7587877,8.60937656 15.441408,8.84081956 15.0820312,8.99121094 C14.7226545,9.14160231 14.3046899,9.21679688 13.828125,9.21679688 C13.2031219,9.21679688 12.659182,9.07324362 12.1962891,8.78613281 C11.7333961,8.499022 11.4023447,8.1396506 11.203125,7.70800781 C11.0039053,7.27636503 10.9042969,6.54688014 10.9042969,5.51953125 L10.9042969,0.380859375 Z M21.4765625,0.380859375 L23.0820312,0.380859375 L25.0742188,6.39257812 L27.0957031,0.380859375 L28.6777344,0.380859375 L30.1308594,9 L28.5488281,9 L27.6230469,3.55664062 L25.7890625,9 L24.3417969,9 L22.53125,3.55664062 L21.5878906,9 L19.9882812,9 L21.4765625,0.380859375 Z M36.0683594,0.380859375 L37.7324219,0.380859375 L41.0488281,9 L39.34375,9 L38.6699219,7.22460938 L35.1542969,7.22460938 L34.4511719,9 L32.7460938,9 L36.0683594,0.380859375 Z M36.9121094,2.66601562 L35.7636719,5.625 L38.0546875,5.625 L36.9121094,2.66601562 Z M44.3261719,0.380859375 L45.8964844,0.380859375 L49.59375,6.05273438 L49.59375,0.380859375 L51.234375,0.380859375 L51.234375,9 L49.6582031,9 L45.9667969,3.34570312 L45.9667969,9 L44.3261719,9 L44.3261719,0.380859375 Z M55.1972656,0.380859375 L56.8378906,0.380859375 L56.8378906,7.43554688 L59.2285156,7.43554688 L59.2285156,9 L55.1972656,9 L55.1972656,0.380859375 Z M61.8613281,0.380859375 L63.625,0.380859375 L65.2304688,3.47460938 L66.8242188,0.380859375 L68.5644531,0.380859375 L66.0449219,5.26757813 L66.0449219,9 L64.3925781,9 L64.3925781,5.26757813 L61.8613281,0.380859375 Z" id="HUMANLY-" sketch:type="MSShapeGroup"></path>
            <path d="M1.91992188,14.1113281 L3.66015625,14.1113281 C4.60156721,14.1113281 5.28027136,14.1982413 5.69628906,14.3720703 C6.11230677,14.5458993 6.44042849,14.8271465 6.68066406,15.2158203 C6.92089964,15.6044941 7.04101562,16.0703098 7.04101562,16.6132812 C7.04101562,17.2148468 6.88379063,17.7148418 6.56933594,18.1132812 C6.25488124,18.5117207 5.8281277,18.7890617 5.2890625,18.9453125 C4.97265467,19.0351567 4.39648855,19.0800781 3.56054688,19.0800781 L3.56054688,22.7304688 L1.91992188,22.7304688 L1.91992188,14.1113281 Z M3.56054688,17.4804688 L4.08203125,17.4804688 C4.49218955,17.4804688 4.77734295,17.4511722 4.9375,17.3925781 C5.09765705,17.3339841 5.22363235,17.2373054 5.31542969,17.1025391 C5.40722702,16.9677728 5.453125,16.8046885 5.453125,16.6132812 C5.453125,16.2812483 5.32422004,16.0390633 5.06640625,15.8867188 C4.87890531,15.7734369 4.53125254,15.7167969 4.0234375,15.7167969 L3.56054688,15.7167969 L3.56054688,17.4804688 Z M14.71875,13.8945312 C15.9375061,13.8945312 16.9853472,14.3359331 17.8623047,15.21875 C18.7392622,16.1015669 19.1777344,17.177728 19.1777344,18.4472656 C19.1777344,19.7050844 18.7451215,20.7695269 17.8798828,21.640625 C17.0146441,22.5117231 15.9648499,22.9472656 14.7304688,22.9472656 C13.4374935,22.9472656 12.3632855,22.5000045 11.5078125,21.6054688 C10.6523395,20.710933 10.2246094,19.6484437 10.2246094,18.4179688 C10.2246094,17.5937459 10.4238261,16.835941 10.8222656,16.1445312 C11.2207051,15.4531215 11.7685512,14.9052755 12.4658203,14.5009766 C13.1630894,14.0966777 13.9140585,13.8945312 14.71875,13.8945312 L14.71875,13.8945312 Z M14.7011719,15.5 C13.9042929,15.5 13.2343777,15.777341 12.6914062,16.3320312 C12.1484348,16.8867215 11.8769531,17.5917926 11.8769531,18.4472656 C11.8769531,19.4003954 12.2187466,20.1542941 12.9023438,20.7089844 C13.4335964,21.1425803 14.0429653,21.359375 14.7304688,21.359375 C15.5078164,21.359375 16.1699191,21.0781278 16.7167969,20.515625 C17.2636746,19.9531222 17.5371094,19.2597697 17.5371094,18.4355469 C17.5371094,17.6152303 17.2617215,16.9209013 16.7109375,16.3525391 C16.1601535,15.7841768 15.4902383,15.5 14.7011719,15.5 L14.7011719,15.5 Z M27.2421875,15.2832031 L26.0292969,16.3554688 C25.6035135,15.7617158 25.1699241,15.4648438 24.7285156,15.4648438 C24.5136708,15.4648438 24.3378913,15.5224604 24.2011719,15.6376953 C24.0644524,15.7529303 23.9960938,15.8828118 23.9960938,16.0273438 C23.9960938,16.1718757 24.0449214,16.3085931 24.1425781,16.4375 C24.2753913,16.6093759 24.6757779,16.9785128 25.34375,17.5449219 C25.9687531,18.068362 26.3476556,18.3984368 26.4804688,18.5351562 C26.8125017,18.8710954 27.0478509,19.1923813 27.1865234,19.4990234 C27.325196,19.8056656 27.3945312,20.1406232 27.3945312,20.5039062 C27.3945312,21.210941 27.1503931,21.7949196 26.6621094,22.2558594 C26.1738257,22.7167992 25.5371133,22.9472656 24.7519531,22.9472656 C24.1386688,22.9472656 23.6044945,22.7968765 23.1494141,22.4960938 C22.6943337,22.195311 22.3046891,21.7226595 21.9804688,21.078125 L23.3574219,20.2460938 C23.7714864,21.0078163 24.2480442,21.3886719 24.7871094,21.3886719 C25.0683608,21.3886719 25.3046865,21.3066414 25.4960938,21.1425781 C25.687501,20.9785148 25.7832031,20.7890636 25.7832031,20.5742188 C25.7832031,20.3789053 25.7109382,20.1835947 25.5664062,19.9882812 C25.4218743,19.7929678 25.1035181,19.4941426 24.6113281,19.0917969 C23.6738234,18.326168 23.0683607,17.7353536 22.7949219,17.3193359 C22.521483,16.9033182 22.3847656,16.4882833 22.3847656,16.0742188 C22.3847656,15.4765595 22.6123024,14.9638693 23.0673828,14.5361328 C23.5224632,14.1083963 24.083981,13.8945312 24.7519531,13.8945312 C25.1816428,13.8945312 25.5908184,13.9941396 25.9794922,14.1933594 C26.368166,14.3925791 26.7890602,14.7558567 27.2421875,15.2832031 L27.2421875,15.2832031 Z M35.4824219,15.2832031 L34.2695312,16.3554688 C33.8437479,15.7617158 33.4101585,15.4648438 32.96875,15.4648438 C32.7539052,15.4648438 32.5781257,15.5224604 32.4414062,15.6376953 C32.3046868,15.7529303 32.2363281,15.8828118 32.2363281,16.0273438 C32.2363281,16.1718757 32.2851558,16.3085931 32.3828125,16.4375 C32.5156257,16.6093759 32.9160123,16.9785128 33.5839844,17.5449219 C34.2089875,18.068362 34.58789,18.3984368 34.7207031,18.5351562 C35.052736,18.8710954 35.2880852,19.1923813 35.4267578,19.4990234 C35.5654304,19.8056656 35.6347656,20.1406232 35.6347656,20.5039062 C35.6347656,21.210941 35.3906274,21.7949196 34.9023438,22.2558594 C34.4140601,22.7167992 33.7773477,22.9472656 32.9921875,22.9472656 C32.3789032,22.9472656 31.8447288,22.7968765 31.3896484,22.4960938 C30.934568,22.195311 30.5449235,21.7226595 30.2207031,21.078125 L31.5976562,20.2460938 C32.0117208,21.0078163 32.4882786,21.3886719 33.0273438,21.3886719 C33.3085952,21.3886719 33.5449209,21.3066414 33.7363281,21.1425781 C33.9277353,20.9785148 34.0234375,20.7890636 34.0234375,20.5742188 C34.0234375,20.3789053 33.9511726,20.1835947 33.8066406,19.9882812 C33.6621087,19.7929678 33.3437525,19.4941426 32.8515625,19.0917969 C31.9140578,18.326168 31.3085951,17.7353536 31.0351562,17.3193359 C30.7617174,16.9033182 30.625,16.4882833 30.625,16.0742188 C30.625,15.4765595 30.8525368,14.9638693 31.3076172,14.5361328 C31.7626976,14.1083963 32.3242154,13.8945312 32.9921875,13.8945312 C33.4218771,13.8945312 33.8310527,13.9941396 34.2197266,14.1933594 C34.6084004,14.3925791 35.0292946,14.7558567 35.4824219,15.2832031 L35.4824219,15.2832031 Z M39.0878906,14.1113281 L40.7167969,14.1113281 L40.7167969,22.7304688 L39.0878906,22.7304688 L39.0878906,14.1113281 Z M44.5625,22.7304688 L44.5625,14.1113281 L45.9160156,14.1113281 C46.7011758,14.1113281 47.2753888,14.1621089 47.6386719,14.2636719 C48.1542995,14.4003913 48.5644516,14.654295 48.8691406,15.0253906 C49.1738296,15.3964862 49.3261719,15.8339819 49.3261719,16.3378906 C49.3261719,16.6660173 49.2568366,16.9638658 49.1181641,17.2314453 C48.9794915,17.4990248 48.7539078,17.7499988 48.4414062,17.984375 C48.9648464,18.23047 49.347655,18.5380841 49.5898438,18.9072266 C49.8320325,19.276369 49.953125,19.7128881 49.953125,20.2167969 C49.953125,20.7011743 49.8281262,21.1425761 49.578125,21.5410156 C49.3281238,21.9394551 49.0058613,22.2373037 48.6113281,22.4345703 C48.2167949,22.6318369 47.6718785,22.7304688 46.9765625,22.7304688 L44.5625,22.7304688 Z M46.203125,15.6757812 L46.203125,17.4921875 L46.5605469,17.4921875 C46.9589864,17.4921875 47.2548818,17.408204 47.4482422,17.2402344 C47.6416025,17.0722648 47.7382812,16.8437514 47.7382812,16.5546875 C47.7382812,16.2851549 47.6464853,16.0712899 47.4628906,15.9130859 C47.279296,15.754882 47.0000019,15.6757812 46.625,15.6757812 L46.203125,15.6757812 Z M46.203125,18.9570312 L46.203125,21.1660156 L46.6132812,21.1660156 C47.2929721,21.1660156 47.7509754,21.080079 47.9873047,20.9082031 C48.223634,20.7363273 48.3417969,20.4863298 48.3417969,20.1582031 C48.3417969,19.7871075 48.2031264,19.4941417 47.9257812,19.2792969 C47.6484361,19.0644521 47.1875032,18.9570312 46.5429688,18.9570312 L46.203125,18.9570312 Z M53.5234375,14.1113281 L55.1640625,14.1113281 L55.1640625,21.1660156 L57.5546875,21.1660156 L57.5546875,22.7304688 L53.5234375,22.7304688 L53.5234375,14.1113281 Z M60.8085938,14.1113281 L65.5136719,14.1113281 L65.5136719,15.7167969 L62.4375,15.7167969 L62.4375,17.2753906 L65.5136719,17.2753906 L65.5136719,18.8515625 L62.4375,18.8515625 L62.4375,21.1191406 L65.5136719,21.1191406 L65.5136719,22.7304688 L60.8085938,22.7304688 L60.8085938,14.1113281 Z" id="POSSIBLE" sketch:type="MSShapeGroup"></path>
            <path d="M2.21875,27.75 L2.7734375,27.75 L2.69140625,28.3867188 C3.18359621,27.8893204 3.74609059,27.640625 4.37890625,27.640625 C4.95963832,27.640625 5.43554502,27.8268211 5.80664062,28.1992188 C6.17773623,28.5716164 6.36328125,29.0507783 6.36328125,29.6367188 C6.36328125,30.3138055 6.12239824,30.8951799 5.640625,31.3808594 C5.15885176,31.8665389 4.5911491,32.109375 3.9375,32.109375 C3.58333156,32.109375 3.27213676,32.034506 3.00390625,31.8847656 C2.73567574,31.7350253 2.50781344,31.5026057 2.3203125,31.1875 L2.01171875,33.5546875 L1.4453125,33.5546875 L2.21875,27.75 Z M4.3203125,28.140625 C3.97135242,28.140625 3.65169416,28.2233065 3.36132812,28.3886719 C3.07096209,28.5540373 2.84114668,28.7916651 2.671875,29.1015625 C2.50260332,29.4114599 2.41796875,29.7486961 2.41796875,30.1132812 C2.41796875,30.5533876 2.55794131,30.911457 2.83789062,31.1875 C3.11783994,31.463543 3.47916445,31.6015625 3.921875,31.6015625 C4.44531512,31.6015625 4.8932273,31.4127623 5.265625,31.0351562 C5.6380227,30.6575502 5.82421875,30.1940132 5.82421875,29.6445312 C5.82421875,29.1940082 5.68554826,28.8307305 5.40820312,28.5546875 C5.13085799,28.2786445 4.76823141,28.140625 4.3203125,28.140625 L4.3203125,28.140625 Z M9.3984375,27.75 L9.94140625,27.75 L9.87109375,28.2851562 C10.0169278,28.0820302 10.1927073,27.9238287 10.3984375,27.8105469 C10.6041677,27.6972651 10.8151031,27.640625 11.03125,27.640625 C11.1848966,27.640625 11.3450512,27.677083 11.5117188,27.75 L11.2539062,28.25 C11.1184889,28.1953122 11.0052088,28.1679688 10.9140625,28.1679688 C10.7239574,28.1679688 10.5358082,28.2343743 10.3496094,28.3671875 C10.1634105,28.5000007 10.0123704,28.6933581 9.89648438,28.9472656 C9.78059838,29.2011731 9.68229207,29.6184867 9.6015625,30.1992188 L9.3515625,32 L8.8203125,32 L9.3984375,27.75 Z M15.9414062,27.640625 C16.3033872,27.640625 16.6354152,27.7272127 16.9375,27.9003906 C17.2395848,28.0735686 17.4752596,28.3144516 17.6445312,28.6230469 C17.8138029,28.9316422 17.8984375,29.281248 17.8984375,29.671875 C17.8984375,30.1171897 17.7903657,30.5305971 17.5742188,30.9121094 C17.3580718,31.2936217 17.0677102,31.5885406 16.703125,31.796875 C16.3385398,32.0052094 15.9257836,32.109375 15.4648438,32.109375 C14.8945284,32.109375 14.4251321,31.9225279 14.0566406,31.5488281 C13.6881492,31.1751283 13.5039062,30.6992216 13.5039062,30.1210938 C13.5039062,29.6679665 13.6119781,29.2500019 13.828125,28.8671875 C14.0442719,28.4843731 14.3404929,28.1842459 14.7167969,27.9667969 C15.0931008,27.7493479 15.5012999,27.640625 15.9414062,27.640625 L15.9414062,27.640625 Z M15.9296875,28.1601562 C15.5911441,28.1601562 15.2727879,28.2447908 14.9746094,28.4140625 C14.6764308,28.5833342 14.4472664,28.8157537 14.2871094,29.1113281 C14.1269523,29.4069025 14.046875,29.7330711 14.046875,30.0898438 C14.046875,30.5377627 14.1848945,30.9016913 14.4609375,31.1816406 C14.7369805,31.4615899 15.0937478,31.6015625 15.53125,31.6015625 C15.8723975,31.6015625 16.1816392,31.5201831 16.4589844,31.3574219 C16.7363295,31.1946606 16.9570304,30.959637 17.1210938,30.6523438 C17.2851571,30.3450505 17.3671875,30.0156268 17.3671875,29.6640625 C17.3671875,29.3697902 17.3059902,29.1087251 17.1835938,28.8808594 C17.0611973,28.6529937 16.888022,28.4759121 16.6640625,28.3496094 C16.440103,28.2233067 16.1953138,28.1601562 15.9296875,28.1601562 L15.9296875,28.1601562 Z M24.9101562,32 L24.359375,32 L24.4414062,31.359375 C23.9492163,31.8593775 23.3854198,32.109375 22.75,32.109375 C22.1718721,32.109375 21.6966164,31.9231789 21.3242188,31.5507812 C20.9518211,31.1783836 20.765625,30.6992217 20.765625,30.1132812 C20.765625,29.4361945 21.007159,28.8548201 21.4902344,28.3691406 C21.9733097,27.8834611 22.5416634,27.640625 23.1953125,27.640625 C23.5494809,27.640625 23.8600247,27.714843 24.1269531,27.8632812 C24.3938815,28.0117195 24.6223949,28.243488 24.8125,28.5585938 L25.1289062,26.109375 L25.6953125,26.109375 L24.9101562,32 Z M22.8085938,31.609375 C23.160158,31.609375 23.4804673,31.5266935 23.7695312,31.3613281 C24.0585952,31.1959627 24.2877596,30.9583349 24.4570312,30.6484375 C24.6263029,30.3385401 24.7109375,30.0013039 24.7109375,29.6367188 C24.7109375,29.1966124 24.571616,28.838543 24.2929688,28.5625 C24.0143215,28.286457 23.652346,28.1484375 23.2070312,28.1484375 C22.6835911,28.1484375 22.2356789,28.3372377 21.8632812,28.7148438 C21.4908836,29.0924498 21.3046875,29.5559868 21.3046875,30.1054688 C21.3046875,30.5559918 21.444009,30.9192695 21.7226562,31.1953125 C22.0013035,31.4713555 22.363279,31.609375 22.8085938,31.609375 L22.8085938,31.609375 Z M28.7382812,27.75 L29.2851562,27.75 L29.0390625,29.5273438 C28.9713538,30.0299504 28.9375,30.3528639 28.9375,30.4960938 C28.9375,30.8216162 29.0462229,31.0872386 29.2636719,31.2929688 C29.4811209,31.4986989 29.7682274,31.6015625 30.125,31.6015625 C30.4218765,31.6015625 30.6796864,31.5234383 30.8984375,31.3671875 C31.1171886,31.2109367 31.273437,31.0065117 31.3671875,30.7539062 C31.4140627,30.6263014 31.4700518,30.3333356 31.5351562,29.875 L31.8398438,27.75 L32.375,27.75 L32.15625,29.359375 C32.0520828,30.127608 31.9414068,30.6738265 31.8242188,30.9980469 C31.7070307,31.3222672 31.4980484,31.5885406 31.1972656,31.796875 C30.8964829,32.0052094 30.5299501,32.109375 30.0976562,32.109375 C29.6054663,32.109375 29.2024755,31.9589859 28.8886719,31.6582031 C28.5748682,31.3574204 28.4179688,30.9817731 28.4179688,30.53125 C28.4179688,30.3515616 28.4322915,30.1419283 28.4609375,29.9023438 L28.5,29.5273438 L28.5195312,29.3671875 L28.7382812,27.75 Z M39.546875,28.6679688 L39.0976562,28.9296875 C38.7825505,28.4192683 38.3007845,28.1640625 37.6523438,28.1640625 C37.2773419,28.1640625 36.9348974,28.247395 36.625,28.4140625 C36.3151026,28.58073 36.0729175,28.8124985 35.8984375,29.109375 C35.7239575,29.4062515 35.6367188,29.7239566 35.6367188,30.0625 C35.6367188,30.3619807 35.7018223,30.6302071 35.8320312,30.8671875 C35.9622402,31.1041679 36.1451811,31.2864577 36.3808594,31.4140625 C36.6165376,31.5416673 36.8945296,31.6054688 37.2148438,31.6054688 C37.5429704,31.6054688 37.8561183,31.5403652 38.1542969,31.4101562 C38.4524754,31.2799473 38.684895,31.1119802 38.8515625,30.90625 L39.3007812,31.2226562 C39.0195298,31.5299495 38.7141944,31.7545566 38.3847656,31.8964844 C38.0553369,32.0384122 37.6731793,32.109375 37.2382812,32.109375 C36.5664029,32.109375 36.0423196,31.9264341 35.6660156,31.5605469 C35.2897117,31.1946596 35.1015625,30.7070343 35.1015625,30.0976562 C35.1015625,29.4205695 35.3483048,28.8417993 35.8417969,28.3613281 C36.3352889,27.880857 36.9401006,27.640625 37.65625,27.640625 C38.0859396,27.640625 38.4648421,27.7311189 38.7929688,27.9121094 C39.1210954,28.0930999 39.372395,28.3450505 39.546875,28.6679688 L39.546875,28.6679688 Z M43.4609375,26.1601562 L43.9960938,26.1601562 L43.7851562,27.75 L44.6289062,27.75 L44.5664062,28.2265625 L43.7226562,28.2265625 L43.2070312,32 L42.6601562,32 L43.171875,28.2265625 L42.4414062,28.2265625 L42.5078125,27.75 L43.234375,27.75 L43.4609375,26.1601562 Z M47.8242188,26 C47.944011,26 48.0468746,26.0429683 48.1328125,26.1289062 C48.2187504,26.2148442 48.2617188,26.3177077 48.2617188,26.4375 C48.2617188,26.5598964 48.2187504,26.663411 48.1328125,26.7480469 C48.0468746,26.8326827 47.944011,26.875 47.8242188,26.875 C47.7018223,26.875 47.5983077,26.8326827 47.5136719,26.7480469 C47.429036,26.663411 47.3867188,26.5598964 47.3867188,26.4375 C47.3867188,26.3177077 47.429036,26.2148442 47.5136719,26.1289062 C47.5983077,26.0429683 47.7018223,26 47.8242188,26 L47.8242188,26 Z M47.3945313,27.75 L47.9140625,27.75 L47.3476563,32 L46.8085938,32 L47.3945313,27.75 Z M53.0117188,27.640625 C53.3736997,27.640625 53.7057277,27.7272127 54.0078125,27.9003906 C54.3098973,28.0735686 54.5455721,28.3144516 54.7148438,28.6230469 C54.8841154,28.9316422 54.96875,29.281248 54.96875,29.671875 C54.96875,30.1171897 54.8606782,30.5305971 54.6445312,30.9121094 C54.4283843,31.2936217 54.1380227,31.5885406 53.7734375,31.796875 C53.4088523,32.0052094 52.9960961,32.109375 52.5351562,32.109375 C51.9648409,32.109375 51.4954446,31.9225279 51.1269531,31.5488281 C50.7584617,31.1751283 50.5742188,30.6992216 50.5742188,30.1210938 C50.5742188,29.6679665 50.6822906,29.2500019 50.8984375,28.8671875 C51.1145844,28.4843731 51.4108054,28.1842459 51.7871094,27.9667969 C52.1634133,27.7493479 52.5716124,27.640625 53.0117188,27.640625 L53.0117188,27.640625 Z M53,28.1601562 C52.6614566,28.1601562 52.3431004,28.2447908 52.0449219,28.4140625 C51.7467433,28.5833342 51.5175789,28.8157537 51.3574219,29.1113281 C51.1972648,29.4069025 51.1171875,29.7330711 51.1171875,30.0898438 C51.1171875,30.5377627 51.255207,30.9016913 51.53125,31.1816406 C51.807293,31.4615899 52.1640603,31.6015625 52.6015625,31.6015625 C52.94271,31.6015625 53.2519517,31.5201831 53.5292969,31.3574219 C53.806642,31.1946606 54.0273429,30.959637 54.1914062,30.6523438 C54.3554696,30.3450505 54.4375,30.0156268 54.4375,29.6640625 C54.4375,29.3697902 54.3763027,29.1087251 54.2539062,28.8808594 C54.1315098,28.6529937 53.9583345,28.4759121 53.734375,28.3496094 C53.5104155,28.2233067 53.2656263,28.1601562 53,28.1601562 L53,28.1601562 Z M58.34375,27.75 L58.8671875,27.75 L58.7851562,28.4023438 C59.2148459,27.8945287 59.7148409,27.640625 60.2851562,27.640625 C60.7226584,27.640625 61.0755195,27.7753893 61.34375,28.0449219 C61.6119805,28.3144545 61.7460938,28.6770811 61.7460938,29.1328125 C61.7460938,29.3151051 61.7174482,29.6210916 61.6601562,30.0507812 L61.3945312,32 L60.8554688,32 L61.1171875,30.0507812 C61.1744795,29.6341125 61.203125,29.3268239 61.203125,29.1289062 C61.203125,28.8320298 61.1132821,28.5924488 60.9335938,28.4101562 C60.7539054,28.2278637 60.5182306,28.1367188 60.2265625,28.1367188 C59.9401027,28.1367188 59.6738294,28.2102857 59.4277344,28.3574219 C59.1816394,28.504558 58.9908861,28.7050769 58.8554688,28.9589844 C58.7200514,29.2128919 58.6158858,29.6145806 58.5429688,30.1640625 L58.2890625,32 L57.7539062,32 L58.34375,27.75 Z M67.1835938,28.2265625 L66.8867188,28.6679688 C66.6471342,28.3268212 66.3632829,28.15625 66.0351562,28.15625 C65.8476553,28.15625 65.6875007,28.2174473 65.5546875,28.3398438 C65.4218743,28.4622402 65.3554688,28.5976555 65.3554688,28.7460938 C65.3554688,28.8606777 65.3958329,28.9700516 65.4765625,29.0742188 C65.5546879,29.1783859 65.7330715,29.3203116 66.0117188,29.5 C66.4179708,29.7630221 66.6861973,29.9921865 66.8164062,30.1875 C66.9440111,30.3854177 67.0078125,30.61328 67.0078125,30.8710938 C67.0078125,31.2278664 66.8834648,31.5234363 66.6347656,31.7578125 C66.3860665,31.9921887 66.062502,32.109375 65.6640625,32.109375 C65.1380182,32.109375 64.6953143,31.8763044 64.3359375,31.4101562 L64.6679688,31.0234375 C64.9830745,31.4062519 65.325519,31.5976562 65.6953125,31.5976562 C65.9062511,31.5976562 66.089843,31.5234382 66.2460938,31.375 C66.4023445,31.2265618 66.4804688,31.0546885 66.4804688,30.859375 C66.4804688,30.70052 66.4218756,30.5481778 66.3046875,30.4023438 C66.2291663,30.3085933 66.0260433,30.1497407 65.6953125,29.9257812 C65.3385399,29.6809884 65.1041672,29.4778654 64.9921875,29.3164062 C64.8802078,29.1575513 64.8242188,28.9778656 64.8242188,28.7773438 C64.8242188,28.462238 64.9427071,28.1940115 65.1796875,27.9726562 C65.4166679,27.751301 65.716144,27.640625 66.078125,27.640625 C66.2916677,27.640625 66.4850252,27.6835933 66.6582031,27.7695312 C66.8313811,27.8554692 67.0065095,28.0078114 67.1835938,28.2265625 L67.1835938,28.2265625 Z" id="productions" sketch:type="MSShapeGroup"></path>
        </g>
    </g>
</svg>